<?xml version="1.0" encoding="UTF-8"?>
<svg id="_图层_3" data-name="图层 3" xmlns="http://www.w3.org/2000/svg" viewBox="0 0 2834.65 2834.65">
  <defs>
    <style>
      .cls-1 {
        fill: #231815;
        stroke-width: 0px;
      }
    </style>
  </defs>
  <g>
    <path class="cls-1" d="M844.89,1246.32c-145.52,0-218.27-73.21-218.27-219.65.46-188.89.92-377.78,1.38-566.67,40.15,40.61,80.29,81.21,120.44,121.82v444.84c0,34.15,7.92,59.84,23.77,77.06,15.84,17.23,40.68,25.84,74.53,25.84,65.53,0,98.29-34.3,98.29-102.9v-444.84h121.82v444.84c0,73.22-18.85,128.13-56.53,164.74-37.69,36.61-92.83,54.91-165.43,54.91Z"/>
    <path class="cls-1" d="M1193.29,1237.09v-489.14h111.67l13.38,103.37v385.78h-125.05ZM1482.62,1237.09v-287.49c0-29.53-6.08-52.3-18.23-68.3-12.16-15.99-29.46-24-51.91-24-62.76,0-94.14,45.22-94.14,135.67l-28.61-156.43h40.61c4.61-32.91,15.84-57.45,33.69-73.6,17.84-16.15,44.91-24.23,81.22-24.23,51.68,0,91.67,15.69,119.98,47.07,28.3,31.38,42.45,75.68,42.45,132.9v318.41h-125.05Z"/>
    <path class="cls-1" d="M1743.34,1237.09v-115.36h190.12v115.36h-190.12ZM1771.03,863.31v-115.36h277.8v115.36h-277.8ZM1980.99,681.96c-23.69,0-42.92-7.38-57.68-22.15s-22.15-33.99-22.15-57.68,7.38-42.92,22.15-57.68c6.76-6.76,13.04-10.4,14-11,20.42-12.7,35.95-141.34,40.69-141.44,4.77-.1,26.31,128.8,46.71,141.47.95.59,7.21,4.23,13.96,10.98,14.77,14.77,22.15,34,22.15,57.68s-7.38,42.92-22.15,57.68-34,22.15-57.68,22.15ZM1924.23,1237.09v-461.46h124.59v461.46h-124.59ZM2039.6,1237.09v-115.36h154.13v115.36h-154.13Z"/>
  </g>
  <path class="cls-1" d="M361.74,2303.12v-655.27h58.6v655.27h-58.6ZM413.89,2303.12v-56.3h99.21c77.52,0,135.59-21.84,174.2-65.53,38.6-43.68,57.91-109.21,57.91-196.58,0-93.83-19.31-164.05-57.91-210.65-38.61-46.61-96.67-69.91-174.2-69.91h-97.37l-11.08-56.3h108.44c195.04,0,292.56,112.29,292.56,336.86,0,212.27-97.53,318.41-292.56,318.41h-99.21Z"/>
  <path class="cls-1" d="M1257.4,2279.4c-75.74,28.47-142.24,29.48-199.51,3.02-57.27-26.45-100.41-78.27-129.42-155.45-27.82-74-31.96-137.93-12.44-191.78,19.52-53.84,61.11-92.73,124.75-116.65,59.32-22.3,112.25-21.16,158.79,3.41,46.54,24.58,82.58,70.84,108.13,138.8,6.71,17.86,11.48,33.15,14.29,45.9l-337.78,126.97-18.51-49.24,285.09-107.16c-18.62-49.53-44.43-83.45-77.45-101.77-33.01-18.32-70.25-19.69-111.72-4.1-46.08,17.32-75.89,46.44-89.43,87.35-13.54,40.92-9.65,89.74,11.67,146.46,22.73,60.47,57.07,100.89,103.01,121.25,45.94,20.37,99.58,19.02,160.92-4.04,16.99-6.39,34.51-14.2,52.56-23.45,18.05-9.25,35.01-18.99,50.88-29.23l28.18,50.05c-18.25,11.79-38.03,22.75-59.36,32.91-21.33,10.15-42.21,19.07-62.66,26.76Z"/>
  <path class="cls-1" d="M1639.51,2312.35c-35.99,0-66.53-1.08-91.6-3.23-25.08-2.16-47.76-5.7-68.07-10.61l7.38-58.61c31.68,4.92,59.53,8.62,83.52,11.08,24,2.47,46.91,3.69,68.76,3.69,60.29,0,104.06-6.3,131.29-18.92,27.23-12.61,40.84-32.91,40.84-60.91,0-19.38-6.31-35.22-18.92-47.53-12.62-12.3-32.76-21.84-60.45-28.61l-109.83-27.69c-47.69-12-82.14-27.99-103.37-47.99-21.23-19.99-31.84-46.15-31.84-78.45,0-49.22,19.92-84.83,59.76-106.83,39.84-21.99,104.21-32.99,193.12-32.99,21.53,0,41.6.69,60.22,2.08,18.61,1.38,39.14,3.77,61.6,7.15l-6.92,54.91c-24.92-2.46-46.69-4.15-65.3-5.08-18.62-.92-36.07-1.38-52.38-1.38-65.53,0-113.06,6.39-142.59,19.15-29.53,12.77-44.3,33.3-44.3,61.6,0,16.92,7.38,31.23,22.15,42.92,14.77,11.7,38.76,21.54,71.99,29.53l87.68,21.23c50.14,12.31,86.44,29.23,108.9,50.76,22.45,21.54,33.69,50.46,33.69,86.75,0,48.3-18.54,83.37-55.61,105.21-37.08,21.85-96.98,32.76-179.74,32.76Z"/>
  <path class="cls-1" d="M2035.44,2303.12v-692.18h60.45v692.18h-60.45ZM2067.28,2108.39v-56.76h60.91c51.99,0,94.67-7.77,128.05-23.3,33.38-15.53,59.6-40.68,78.68-75.45,19.07-34.76,33.07-81.06,41.99-138.9h64.6c-14.77,101.52-46.15,175.97-94.14,223.34-47.99,47.38-116.45,71.06-205.35,71.06h-74.76ZM2397.23,2303.12l-139.82-247.34,54.91-28.61,160.59,275.95h-75.68Z"/>
</svg>