<?xml version="1.0" encoding="UTF-8"?>
<svg id="_图层_2" data-name="图层 2" xmlns="http://www.w3.org/2000/svg" viewBox="0 0 2834.65 1374.65">
  <defs>
    <style>
      .cls-1 {
        fill: #fff;
        stroke-width: 0px;
      }
    </style>
  </defs>
  <text/>
  <g>
    <g>
      <path class="cls-1" d="M679.41,595.68c-38.25,0-67-9.56-86.24-28.69-26.69-26.52-28.49-64.26-29.23-87.53-4.21-130.76-1.54-260.84-.45-306.58,21.63,23.74,43.27,47.48,64.9,71.22v235.35c0,18.07,4.19,31.66,12.57,40.77,8.38,9.12,21.52,13.67,39.43,13.67,34.67,0,52-18.15,52-54.44v-235.35h64.45v235.35c0,38.74-9.97,67.79-29.91,87.16-19.94,19.37-49.11,29.05-87.52,29.05Z"/>
      <path class="cls-1" d="M863.73,590.8v-258.79h59.08l7.08,54.69v204.1h-66.16ZM1016.81,590.8v-152.1c0-15.62-3.22-27.67-9.64-36.13-6.43-8.46-15.59-12.7-27.47-12.7-33.2,0-49.8,23.93-49.8,71.78l-15.14-82.76h21.48c2.44-17.41,8.38-30.4,17.82-38.94,9.44-8.54,23.76-12.82,42.97-12.82,27.34,0,48.5,8.3,63.48,24.9,14.97,16.6,22.46,40.04,22.46,70.31v168.46h-66.16Z"/>
      <path class="cls-1" d="M1154.75,590.8v-61.04h100.59v61.04h-100.59ZM1169.4,393.05v-61.04h146.97v61.04h-146.97ZM1280.48,297.1c-12.54,0-22.71-3.91-30.52-11.72s-11.72-17.98-11.72-30.52,3.91-22.71,11.72-30.52c3.58-3.58,6.89-5.5,7.41-5.82,10.79-6.77,20.64-83.61,22.11-83.63,1.48-.02,13.36,76.89,24.13,83.64.51.32,3.81,2.24,7.38,5.81,7.81,7.81,11.72,17.99,11.72,30.52s-3.91,22.71-11.72,30.52-17.99,11.72-30.52,11.72ZM1250.45,590.8v-244.14h65.92v244.14h-65.92ZM1311.49,590.8v-61.04h81.54v61.04h-81.54Z"/>
      <path class="cls-1" d="M1531.21,595.68c-31.41,0-55.79-11.35-73.12-34.06-17.33-22.71-26-55.3-26-97.78s8.71-77.11,26.12-100.95c17.41-23.84,41.91-35.77,73.49-35.77,19.69,0,34.63,4.27,44.8,12.82,10.17,8.54,16.8,21.53,19.9,38.94h21.48l-15.14,79.1c0-23.11-4.36-40.32-13.06-51.64-8.71-11.31-21.69-16.97-38.94-16.97-15.62,0-27.71,6.47-36.25,19.41s-12.82,31.29-12.82,55.05,4.15,40.49,12.45,52.12c8.3,11.64,20.51,17.46,36.62,17.46,17.41,0,30.43-5.04,39.06-15.14,8.62-10.09,12.94-25.15,12.94-45.17v-13.92l17.58,91.55h-23.93c-2.77,14.81-9.73,26-20.87,33.57-11.15,7.57-25.92,11.35-44.31,11.35ZM1602.75,703.1v-316.41l4.88-54.69h61.28v371.09h-66.16Z"/>
      <path class="cls-1" d="M1814.66,595.68c-24.58,0-43.62-8.09-57.13-24.29-13.51-16.19-20.26-39.02-20.26-68.48v-170.9h66.16v154.54c0,14.81,3.38,26.25,10.13,34.3,6.75,8.06,16.07,12.08,27.95,12.08,15.46,0,27.14-5.98,35.03-17.94,7.89-11.96,11.84-32.02,11.84-60.18l13.18,86.18h-20.02c-4.07,17.58-11.96,31.09-23.68,40.53s-26.12,14.16-43.21,14.16ZM1888.39,517.56v-185.55h66.16v170.9l-66.16,14.65ZM1892.79,593.24l-4.39-62.01v-45.41h66.16v45.9l35.64,5.37v53.71l-97.41,2.44Z"/>
      <path class="cls-1" d="M2168.18,595.68c-44.76,0-79.35-11.6-103.76-34.79s-36.62-56.52-36.62-99.98,10.38-75.2,31.13-98.63,50.01-35.16,87.77-35.16,65.51,10.83,85.69,32.47c20.18,21.65,30.27,53.14,30.27,94.48,0,11.72-.49,22.87-1.46,33.45h-189.94v-45.9h126.46c0-17.41-4.44-30.76-13.31-40.04-8.87-9.28-21.28-13.92-37.23-13.92-17.25,0-30.64,6.15-40.16,18.43-9.52,12.29-14.28,29.75-14.28,52.37,0,24.41,7.04,42.97,21.12,55.66,14.08,12.7,34.14,19.04,60.18,19.04,11.72,0,23.27-.61,34.67-1.83,11.39-1.22,23.03-2.89,34.91-5l6.35,62.5c-16.6,2.93-31.74,4.8-45.41,5.62-13.67.81-25.8,1.22-36.38,1.22Z"/>
    </g>
    <text/>
    <path class="cls-1" d="M423.79,1127.45v-346.68h31.01v346.68h-31.01ZM451.38,1127.45v-29.79h52.49c41.02,0,71.74-11.55,92.16-34.67,20.42-23.11,30.64-57.78,30.64-104,0-49.64-10.22-86.79-30.64-111.45-20.43-24.66-51.15-36.99-92.16-36.99h-51.51l-5.86-29.79h57.37c103.19,0,154.79,59.41,154.79,178.22,0,112.3-51.6,168.46-154.79,168.46h-52.49Z"/>
    <path class="cls-1" d="M898.23,1114.55c-40,15.26-75.17,15.97-105.54,2.12-30.37-13.85-53.33-41.15-68.88-81.9-14.91-39.08-17.27-72.89-7.08-101.43,10.19-28.54,32.09-49.22,65.7-62.04,31.33-11.95,59.33-11.49,84.02,1.39,24.68,12.88,43.88,37.27,57.57,73.15,3.6,9.43,6.16,17.51,7.68,24.24l-178.38,68.05-9.92-26,150.55-57.44c-9.98-26.15-23.72-44.03-41.24-53.64-17.51-9.6-37.22-10.23-59.12-1.88-24.33,9.28-40.03,24.77-47.08,46.45-7.06,21.68-4.87,47.5,6.56,77.46,12.18,31.93,30.45,53.23,54.81,63.88,24.36,10.66,52.73,9.8,85.12-2.56,8.97-3.42,18.22-7.6,27.75-12.55,9.52-4.94,18.47-10.14,26.84-15.6l15.04,26.4c-9.62,6.28-20.06,12.14-31.32,17.57-11.26,5.43-22.28,10.2-33.08,14.32Z"/>
    <path class="cls-1" d="M1099.82,1132.33c-19.04,0-35.2-.57-48.46-1.71-13.27-1.14-25.27-3.01-36.01-5.62l3.91-31.01c16.76,2.61,31.49,4.56,44.19,5.86,12.7,1.3,24.82,1.95,36.38,1.95,31.9,0,55.05-3.33,69.46-10.01,14.4-6.67,21.61-17.41,21.61-32.23,0-10.25-3.34-18.63-10.01-25.15-6.68-6.51-17.33-11.55-31.98-15.14l-58.11-14.65c-25.23-6.35-43.46-14.81-54.69-25.39-11.23-10.58-16.85-24.41-16.85-41.5,0-26.04,10.54-44.88,31.62-56.52,21.08-11.63,55.13-17.46,102.17-17.46,11.39,0,22.01.37,31.86,1.1,9.85.73,20.71,2,32.59,3.78l-3.66,29.05c-13.18-1.3-24.7-2.2-34.55-2.69-9.85-.49-19.08-.73-27.71-.73-34.67,0-59.81,3.38-75.44,10.13-15.62,6.76-23.44,17.62-23.44,32.59,0,8.95,3.91,16.52,11.72,22.71,7.81,6.19,20.51,11.39,38.09,15.62l46.39,11.23c26.53,6.51,45.73,15.46,57.62,26.86,11.88,11.39,17.82,26.7,17.82,45.9,0,25.55-9.81,44.11-29.42,55.66-19.62,11.56-51.31,17.33-95.09,17.33Z"/>
    <path class="cls-1" d="M1309.29,1127.45v-366.21h31.98v366.21h-31.98ZM1326.14,1024.42v-30.03h32.23c27.5,0,50.09-4.11,67.75-12.33,17.66-8.22,31.53-21.52,41.63-39.92,10.09-18.39,17.49-42.88,22.22-73.49h34.18c-7.81,53.71-24.41,93.1-49.8,118.16-25.39,25.07-61.61,37.6-108.64,37.6h-39.55ZM1500.7,1127.45l-73.97-130.86,29.05-15.14,84.96,146h-40.04Z"/>
    <path class="cls-1" d="M1580.29,897.47v-28.81h226.56v28.81h-226.56ZM1654.75,1005.38v-214.84h32.71v214.84h-32.71ZM1752.65,1132.33c-33.37,0-58.03-8.54-73.97-25.63-15.95-17.09-23.93-43.29-23.93-78.61v-42.24h32.71v41.5c0,25.23,5.7,43.95,17.09,56.15,11.39,12.21,29.05,18.31,52.98,18.31,9.44,0,18.59-.45,27.47-1.34,8.87-.89,18.19-2.08,27.95-3.54l3.66,29.54c-10.74,1.95-21.24,3.42-31.49,4.39s-21.08,1.46-32.47,1.46Z"/>
    <path class="cls-1" d="M1998.74,1132.33c-34.51,0-61.36-11.72-80.57-35.16-19.21-23.44-28.81-56.48-28.81-99.12s9.6-75.89,28.81-99.24c19.2-23.35,46.06-35.03,80.57-35.03s61.56,11.68,80.69,35.03c19.12,23.36,28.69,56.44,28.69,99.24s-9.56,75.68-28.69,99.12c-19.13,23.44-46.02,35.16-80.69,35.16ZM1998.74,1101.81c24.09,0,42.76-9.03,56.03-27.1,13.26-18.07,19.9-43.62,19.9-76.66s-6.63-58.8-19.9-76.78c-13.27-17.98-31.94-26.98-56.03-26.98s-42.77,9-56.03,26.98c-13.27,17.99-19.9,43.58-19.9,76.78s6.63,58.59,19.9,76.66c13.26,18.07,31.94,27.1,56.03,27.1Z"/>
    <path class="cls-1" d="M2190.15,1239.75v-371.09h27.59l4.88,59.57v311.52h-32.47ZM2307.58,1132.33c-24.09,0-42.89-5.45-56.4-16.36-13.51-10.9-21.97-25.88-25.39-44.92h-20.75l17.58-69.09c0,33.04,6.59,58.11,19.78,75.2s32.55,25.63,58.11,25.63,44.88-8.67,57.98-26c13.1-17.33,19.65-42.76,19.65-76.29,0-35.32-6.55-62.01-19.65-80.08-13.1-18.07-32.35-27.1-57.74-27.1s-44.96,8.54-58.23,25.63c-13.27,17.09-19.9,42.24-19.9,75.44l-15.87-71.29h18.07c3.42-19.37,12.12-34.1,26.12-44.19,14-10.09,32.55-15.14,55.66-15.14,34.34,0,60.3,11.56,77.88,34.67,17.58,23.11,26.37,57.13,26.37,102.05s-8.71,76.09-26.12,98.39c-17.42,22.3-43.13,33.45-77.15,33.45Z"/>
  </g>
</svg>